<?xml version="1.0" encoding="utf-8"?>
<!-- Generator: Adobe Illustrator 27.2.0, SVG Export Plug-In . SVG Version: 6.00 Build 0)  -->
<svg version="1.1" id="Layer_1" xmlns="http://www.w3.org/2000/svg" xmlns:xlink="http://www.w3.org/1999/xlink" x="0px" y="0px"
	 viewBox="0 0 359.9 81.7" style="enable-background:new 0 0 359.9 81.7;" xml:space="preserve">
<style type="text/css">
	.st0{fill:#A62639;}
	.st1{fill:#161616;}
</style>
<rect class="st0" width="359.9" height="81.7"/>
<g>
	<g>
		<path class="st1" d="M3.7,78.7V14.3h28.1c14.3,0,23.5,7.2,23.5,20.4s-9.7,21-23.8,21H12.8v23H3.7L3.7,78.7z M12.8,47.4h18.5
			c8.6,0,14.8-4.7,14.8-12.7s-5.8-12.2-14.5-12.2H12.8V47.4L12.8,47.4z"/>
		<path class="st1" d="M56.7,55.7c0-13.5,9.3-23.9,22.5-23.9c6.9,0,12.8,3,15.8,7.6h0.2v-6.6h8.3v46.1h-8.3v-6.6H95
			c-2.9,4.7-9,7.5-15.8,7.5C66,79.7,56.7,69.3,56.7,55.7L56.7,55.7z M80.5,72c9.1,0,15.1-7,15.1-16.3s-6-16.3-15.1-16.3
			s-15.2,6.8-15.2,16.3S71.3,72,80.5,72z"/>
		<path class="st1" d="M111,78.7v-59h8.3v12.9h13.1v7.6h-13.1v38.4L111,78.7L111,78.7z"/>
		<path class="st1" d="M136.8,78.7v-59h8.3v12.9h13.1v7.6h-13.1v38.4L136.8,78.7L136.8,78.7z"/>
		<path class="st1" d="M158,55.7c0-13.7,9.9-23.9,23.5-23.9c14.6,0,23,9.9,23,26.1h-37.9c1,8.5,7,14.4,15.5,14.4
			c7,0,12.1-3.3,13.5-8.8h8.6c-1.8,9.2-10,16.2-22.2,16.2C168.3,79.7,158,69.4,158,55.7L158,55.7z M195.4,50.8
			c-0.8-7.4-6-11.7-13.8-11.7c-7.4,0-12.7,4.7-14.5,11.7H195.4z"/>
		<path class="st1" d="M210.4,78.7v-46h21.4v7.6h-13.1v38.4H210.4z"/>
		<path class="st1" d="M235.9,78.7v-46h8.3v7.4h0.2c3.6-5.5,9-8.3,16.2-8.3c12.2,0,18.5,6.8,18.5,19.1v27.9h-8.3V51.6
			c0-8.3-4-12.4-12-12.4c-9.1,0-14.6,7.9-14.6,17.9v21.7L235.9,78.7L235.9,78.7z"/>
		<path class="st1" d="M283.6,61.1h8.3c0.1,7.5,5.3,11.6,13.2,11.6s12.6-2.6,12.6-7.3c0-4.1-5.1-5.5-11.3-5.9
			c-3.1-0.2-6.3-0.5-9.4-1c-6.4-1-11.4-5-11.4-12.7c0-9.1,8.8-14,19.4-14c11.8,0,20.1,6.5,20.2,17.6H317c0-6.7-4.9-10.5-12-10.5
			c-6.3,0-11.2,1.9-11.2,6.6c0,1.8,0.8,3.2,2.4,4.1c3.3,2,8,1.8,13.7,2.5c2.8,0.5,5.3,0.9,7.7,1.5c4.7,1.2,8.3,5.2,8.3,11.5
			c0,9.7-9.3,14.5-21,14.5S284.1,73.2,283.6,61.1L283.6,61.1z"/>
	</g>
	<path class="st1" d="M326.4,31.1l12.4-28.6h4.1l12.4,28.6H351l-3-7.1h-14.6l-3,7.1H326.4L326.4,31.1z M346.6,20.5l-5.8-13.6h-0.1
		l-5.8,13.6H346.6L346.6,20.5z"/>
</g>
</svg>
