<?xml version="1.0" encoding="UTF-8"?>
<svg id="Layer_1" data-name="Layer 1" xmlns="http://www.w3.org/2000/svg" viewBox="0 0 519.15 519.15">
  <defs>
    <style>
      .cls-1 {
        stroke-width: .25px;
      }

      .cls-1, .cls-2 {
        fill: #161616;
        stroke: #161616;
        stroke-miterlimit: 10;
      }
    </style>
  </defs>
  <g>
    <path class="cls-1" d="M92.74,297.63v-64.48h28.1c14.28,0,23.49,7.19,23.49,20.45s-9.67,21-23.77,21h-18.79v23.03h-9.03ZM101.77,266.31h18.52c8.57,0,14.83-4.7,14.83-12.71s-5.8-12.16-14.55-12.16h-18.79v24.87Z"/>
    <path class="cls-1" d="M145.72,274.61c0-13.54,9.3-23.95,22.48-23.95,6.91,0,12.8,3.04,15.75,7.55h.18v-6.63h8.29v46.06h-8.29v-6.63h-.18c-2.95,4.7-9.03,7.55-15.75,7.55-13.17,0-22.48-10.41-22.48-23.95ZM169.48,290.91c9.12,0,15.11-7,15.11-16.3s-5.99-16.3-15.11-16.3-15.2,6.82-15.2,16.3,6.08,16.3,15.2,16.3Z"/>
    <path class="cls-1" d="M199.98,297.63v-58.96h8.29v12.9h13.08v7.65h-13.08v38.41h-8.29Z"/>
    <path class="cls-1" d="M225.85,297.63v-58.96h8.29v12.9h13.08v7.65h-13.08v38.41h-8.29Z"/>
    <path class="cls-1" d="M247.04,274.61c0-13.73,9.86-23.95,23.49-23.95,14.65,0,23.03,9.86,23.03,26.07h-37.86c1.01,8.47,7,14.37,15.48,14.37,7,0,12.07-3.32,13.45-8.75h8.57c-1.84,9.21-9.95,16.21-22.2,16.21-13.72,0-23.95-10.22-23.95-23.95ZM284.44,269.72c-.83-7.37-5.99-11.7-13.82-11.7-7.37,0-12.71,4.7-14.46,11.7h28.28Z"/>
    <path class="cls-1" d="M299.41,297.63v-46.06h21.37v7.65h-13.08v38.41h-8.29Z"/>
    <path class="cls-1" d="M324.93,297.63v-46.06h8.29v7.37h.18c3.59-5.53,9.03-8.29,16.21-8.29,12.16,0,18.52,6.82,18.52,19.07v27.91h-8.29v-27.17c0-8.29-3.96-12.44-11.97-12.44-9.12,0-14.65,7.92-14.65,17.87v21.74h-8.29Z"/>
    <path class="cls-1" d="M372.61,279.95h8.29c.09,7.46,5.34,11.61,13.17,11.61s12.62-2.58,12.62-7.28c0-4.14-5.07-5.53-11.33-5.9-3.13-.18-6.26-.55-9.4-1.01-6.36-1.01-11.42-4.97-11.42-12.71,0-9.12,8.75-14,19.44-14,11.79,0,20.08,6.54,20.17,17.59h-8.2c0-6.72-4.88-10.5-11.98-10.5-6.26,0-11.24,1.93-11.24,6.63,0,1.84.83,3.22,2.4,4.14,3.32,2.03,8.01,1.75,13.73,2.49,2.76.46,5.34.92,7.74,1.47,4.7,1.2,8.29,5.16,8.29,11.51,0,9.67-9.3,14.55-21,14.55s-20.82-6.45-21.28-18.61Z"/>
  </g>
  <path class="cls-2" d="M415.45,249.94l12.44-28.55h4.08l12.44,28.55h-4.32l-2.98-7.06h-14.6l-3.02,7.06h-4.04ZM435.64,239.37l-5.75-13.58h-.08l-5.79,13.58h11.63Z"/>
</svg>